<?xml version="1.0" encoding="utf-8"?>
<!-- Generator: Adobe Illustrator 16.0.0, SVG Export Plug-In . SVG Version: 6.00 Build 0)  -->
<!DOCTYPE svg PUBLIC "-//W3C//DTD SVG 1.1//EN" "http://www.w3.org/Graphics/SVG/1.1/DTD/svg11.dtd">
<svg version="1.1" id="Layer_1" xmlns="http://www.w3.org/2000/svg" xmlns:xlink="http://www.w3.org/1999/xlink" x="0px" y="0px"
	 width="300px" height="300px" viewBox="0 0 300 300" enable-background="new 0 0 300 300" xml:space="preserve">
<g>
	<polygon fill="#14375E" points="72.406,97.62 125.53,129.082 124,265.5 74.985,236.877 	"/>
	<polygon fill="#A9CAE2" points="72.406,97.62 181.232,36.76 232.294,65.643 125.53,129.082 	"/>
	<polygon fill="#204F7A" points="125.53,129.082 123.983,265.76 235.044,201.632 232.294,65.643 	"/>
	<polygon fill="#204F7A" points="125.333,129.167 124,265.76 235.044,201.632 232.294,65.643 	"/>
	<path fill="#F2F2F2" d="M79.454,123.323l31.807,18.911c0,0,2.921,1.117,3.695-1.29c0,0,1.805-2.405-2.579-4.555l-30.688-17.708
		C81.688,118.681,77.391,118.853,79.454,123.323z"/>
	<path fill="#F2F2F2" d="M79.283,134.669l31.806,18.912c0,0,2.921,1.116,3.695-1.29c0,0,1.805-2.405-2.579-4.555l-30.688-17.708
		C81.517,130.028,77.22,130.2,79.283,134.669z"/>
	<path fill="#F2F2F2" d="M78.94,145.673l31.806,18.912c0,0,2.921,1.116,3.695-1.289c0,0,1.805-2.405-2.579-4.558l-30.688-17.707
		C81.174,141.031,76.877,141.203,78.94,145.673z"/>
	<g>
		<g>
			<path fill="#FD9910" d="M171.387,187.777c-3.289,2.494-4.652,6.233-3.048,8.354c1.606,2.115,5.576,1.808,8.866-0.688
				c3.29-2.498,4.656-6.237,3.049-8.355C178.648,184.973,174.677,185.279,171.387,187.777z"/>
			<path fill="#FD9910" d="M167.579,185.686l-8.427-8.08c0,0-2.235-3.61,0.518-6.189c0,0,5.33-4.298,7.049,2.579l2.579,9.973
				C169.298,183.967,169.471,186.545,167.579,185.686z"/>
			<path fill="#FD9910" d="M177.55,178.636l20.89-55.959c0,0,1.806-4.513,6.447-2.837c0,0,4.898,0.903,1.03,8.252l-26.562,51.575
				C179.355,179.667,177.421,180.184,177.55,178.636z"/>
		</g>
	</g>
</g>
</svg>
